HIERARCHY
ROOT Hips
{
    OFFSET   0.000000   0.000000   0.000000
    CHANNELS 6 Xposition Yposition Zposition Zrotation Xrotation Yrotation
    JOINT Chest
    {
        OFFSET   0.000000   8.007230   0.000000
        CHANNELS 3 Zrotation Xrotation Yrotation
        JOINT Chest2
        {
            OFFSET   0.000000  22.077100   0.000000
            CHANNELS 3 Zrotation Xrotation Yrotation
            JOINT Neck
            {
                OFFSET   0.000000  23.254800  -0.000021
                CHANNELS 3 Zrotation Xrotation Yrotation
                JOINT Head
                {
                    OFFSET   0.000000  14.370000   1.956610
                    CHANNELS 3 Zrotation Xrotation Yrotation
                    End Site
                    {
                        OFFSET   0.000000  19.566000   0.000000
                    }
                }
            }
            JOINT LeftCollar
            {
                OFFSET   3.911900  19.017000  -0.467063
                CHANNELS 3 Zrotation Xrotation Yrotation
                JOINT LeftShoulder
                {
                    OFFSET  10.383700   0.000000   0.000000
                    CHANNELS 3 Zrotation Xrotation Yrotation
                    JOINT LeftElbow
                    {
                        OFFSET  26.662100   0.001529   0.000325
                        CHANNELS 3 Zrotation Xrotation Yrotation
                        JOINT LeftWrist
                        {
                            OFFSET  28.869000  -0.000011  -0.000096
                            CHANNELS 3 Zrotation Xrotation Yrotation
                            JOINT LeftFinger0
                            {
                                OFFSET   2.044650  -2.323460   3.252850
                                CHANNELS 3 Zrotation Xrotation Yrotation
                                JOINT LeftFinger01
                                {
                                    OFFSET   3.088130   0.000000   0.000000
                                    CHANNELS 3 Zrotation Xrotation Yrotation
                                    JOINT LeftFinger02
                                    {
                                        OFFSET   2.639460   0.000000   0.000000
                                        CHANNELS 3 Zrotation Xrotation Yrotation
                                        End Site
                                        {
                                            OFFSET   2.582190   0.000000   0.000000
                                        }
                                    }
                                }
                            }
                            JOINT LeftFinger1
                            {
                                OFFSET   8.364480   0.000000   3.252850
                                CHANNELS 3 Zrotation Xrotation Yrotation
                                JOINT LeftFinger11
                                {
                                    OFFSET   4.646930   0.000000   0.000000
                                    CHANNELS 3 Zrotation Xrotation Yrotation
                                    JOINT LeftFinger12
                                    {
                                        OFFSET   2.323460   0.000000   0.000000
                                        CHANNELS 3 Zrotation Xrotation Yrotation
                                        End Site
                                        {
                                            OFFSET   2.273050   0.000000   0.000000
                                        }
                                    }
                                }
                            }
                            JOINT LeftFinger2
                            {
                                OFFSET   8.364480   0.000016   1.078090
                                CHANNELS 3 Zrotation Xrotation Yrotation
                                JOINT LeftFinger21
                                {
                                    OFFSET   5.111620   0.000000   0.000000
                                    CHANNELS 3 Zrotation Xrotation Yrotation
                                    JOINT LeftFinger22
                                    {
                                        OFFSET   2.788160   0.000017   0.000000
                                        CHANNELS 3 Zrotation Xrotation Yrotation
                                        End Site
                                        {
                                            OFFSET   2.727660   0.000000   0.000000
                                        }
                                    }
                                }
                            }
                            JOINT LeftFinger3
                            {
                                OFFSET   7.899780   0.000015  -1.078090
                                CHANNELS 3 Zrotation Xrotation Yrotation
                                JOINT LeftFinger31
                                {
                                    OFFSET   4.646920   0.000000   0.000000
                                    CHANNELS 3 Zrotation Xrotation Yrotation
                                    JOINT LeftFinger32
                                    {
                                        OFFSET   2.323470   0.000000   0.000000
                                        CHANNELS 3 Zrotation Xrotation Yrotation
                                        End Site
                                        {
                                            OFFSET   2.273050   0.000000   0.000000
                                        }
                                    }
                                }
                            }
                            JOINT LeftFinger4
                            {
                                OFFSET   7.435090   0.000000  -3.252850
                                CHANNELS 3 Zrotation Xrotation Yrotation
                                JOINT LeftFinger41
                                {
                                    OFFSET   3.717550   0.000000   0.000000
                                    CHANNELS 3 Zrotation Xrotation Yrotation
                                    JOINT LeftFinger42
                                    {
                                        OFFSET   1.858760   0.000000   0.000000
                                        CHANNELS 3 Zrotation Xrotation Yrotation
                                        End Site
                                        {
                                            OFFSET   1.818440   0.000000   0.000000
                                        }
                                    }
                                }
                            }
                        }
                    }
                }
            }
            JOINT RightCollar
            {
                OFFSET  -3.911900  19.017000  -0.467062
                CHANNELS 3 Zrotation Xrotation Yrotation
                JOINT RightShoulder
                {
                    OFFSET -10.383700   0.000015   0.000000
                    CHANNELS 3 Zrotation Xrotation Yrotation
                    JOINT RightElbow
                    {
                        OFFSET -26.662100   0.001341   0.000385
                        CHANNELS 3 Zrotation Xrotation Yrotation
                        JOINT RightWrist
                        {
                            OFFSET -28.869000   0.000025  -0.000080
                            CHANNELS 3 Zrotation Xrotation Yrotation
                            JOINT RightFinger0
                            {
                                OFFSET  -2.044650  -2.323490   3.252850
                                CHANNELS 3 Zrotation Xrotation Yrotation
                                JOINT RightFinger01
                                {
                                    OFFSET  -3.088130   0.000000   0.000000
                                    CHANNELS 3 Zrotation Xrotation Yrotation
                                    JOINT RightFinger02
                                    {
                                        OFFSET  -2.639460   0.000000   0.000000
                                        CHANNELS 3 Zrotation Xrotation Yrotation
                                        End Site
                                        {
                                            OFFSET  -2.582190   0.000000   0.000000
                                        }
                                    }
                                }
                            }
                            JOINT RightFinger1
                            {
                                OFFSET  -8.364480   0.000000   3.252850
                                CHANNELS 3 Zrotation Xrotation Yrotation
                                JOINT RightFinger11
                                {
                                    OFFSET  -4.646930   0.000000   0.000000
                                    CHANNELS 3 Zrotation Xrotation Yrotation
                                    JOINT RightFinger12
                                    {
                                        OFFSET  -2.323470   0.000000   0.000000
                                        CHANNELS 3 Zrotation Xrotation Yrotation
                                        End Site
                                        {
                                            OFFSET  -2.273050   0.000000   0.000000
                                        }
                                    }
                                }
                            }
                            JOINT RightFinger2
                            {
                                OFFSET  -8.364480   0.000000   1.078090
                                CHANNELS 3 Zrotation Xrotation Yrotation
                                JOINT RightFinger21
                                {
                                    OFFSET  -5.111610   0.000000   0.000000
                                    CHANNELS 3 Zrotation Xrotation Yrotation
                                    JOINT RightFinger22
                                    {
                                        OFFSET  -2.788160   0.000000   0.000000
                                        CHANNELS 3 Zrotation Xrotation Yrotation
                                        End Site
                                        {
                                            OFFSET  -2.727660   0.000000   0.000000
                                        }
                                    }
                                }
                            }
                            JOINT RightFinger3
                            {
                                OFFSET  -7.899780   0.000000  -1.078090
                                CHANNELS 3 Zrotation Xrotation Yrotation
                                JOINT RightFinger31
                                {
                                    OFFSET  -4.646920   0.000000   0.000000
                                    CHANNELS 3 Zrotation Xrotation Yrotation
                                    JOINT RightFinger32
                                    {
                                        OFFSET  -2.323470   0.000000   0.000000
                                        CHANNELS 3 Zrotation Xrotation Yrotation
                                        End Site
                                        {
                                            OFFSET  -2.273050   0.000000   0.000000
                                        }
                                    }
                                }
                            }
                            JOINT RightFinger4
                            {
                                OFFSET  -7.435090   0.000000  -3.252850
                                CHANNELS 3 Zrotation Xrotation Yrotation
                                JOINT RightFinger41
                                {
                                    OFFSET  -3.717550   0.000000   0.000000
                                    CHANNELS 3 Zrotation Xrotation Yrotation
                                    JOINT RightFinger42
                                    {
                                        OFFSET  -1.858770   0.000000   0.000000
                                        CHANNELS 3 Zrotation Xrotation Yrotation
                                        End Site
                                        {
                                            OFFSET  -1.818440   0.000000   0.000000
                                        }
                                    }
                                }
                            }
                        }
                    }
                }
            }
        }
    }
    JOINT LeftHip
    {
        OFFSET   9.783010   0.000000   0.000000
        CHANNELS 3 Zrotation Xrotation Yrotation
        JOINT LeftKnee
        {
            OFFSET   0.000070 -41.789100   0.000028
            CHANNELS 3 Zrotation Xrotation Yrotation
            JOINT LeftAnkle
            {
                OFFSET   0.000087 -41.133200  -0.000100
                CHANNELS 3 Zrotation Xrotation Yrotation
                JOINT LeftToe
                {
                    OFFSET   0.000000  -6.358960  14.674500
                    CHANNELS 3 Zrotation Xrotation Yrotation
                    End Site
                    {
                        OFFSET   0.000000   0.000000   3.913200
                    }
                }
            }
        }
    }
    JOINT RightHip
    {
        OFFSET  -9.783020   0.000000   0.000000
        CHANNELS 3 Zrotation Xrotation Yrotation
        JOINT RightKnee
        {
            OFFSET   0.000044 -41.789100  -0.000870
            CHANNELS 3 Zrotation Xrotation Yrotation
            JOINT RightAnkle
            {
                OFFSET  -0.000090 -41.133200  -0.000245
                CHANNELS 3 Zrotation Xrotation Yrotation
                JOINT RightToe
                {
                    OFFSET   0.000000  -6.358960  14.674500
                    CHANNELS 3 Zrotation Xrotation Yrotation
                    End Site
                    {
                        OFFSET   0.000000   0.000000   3.913200
                    }
                }
            }
        }
    }
}
MOTION
Frames: 4
Frame Time:   0.016667
 -0.808794  89.465300   0.246910  -0.719960  -1.440250   0.535855   1.277140   2.891900  -1.026080   2.610980   5.759740  -2.120580  -2.105200  -0.077795   0.008287  -3.451380  -0.157434   7.034230  -8.309800   0.940562   9.962500 -75.695600   8.832420   1.694940   0.056489  -1.336590 -14.736000   9.201430 -12.814200  -2.691690  37.935600  26.598500 -52.145900 -29.991000   0.002117   0.001250  -9.995500   0.004190  -0.004536 -33.138900   1.312400  -2.009240 -27.132500   0.002491  -0.005219 -18.992700  -0.000949  -0.000244 -31.299200  -0.713055   1.172620 -46.959700  -0.004295   0.000302 -31.275100  -0.001388  -0.015201 -28.286200  -3.347530   6.193160 -35.781500  -0.012207  -0.006800 -23.830500   0.004844   0.004541 -33.400300  -3.887320   5.870200 -50.399500  -0.004434  -0.004718 -33.566100  -0.000499  -0.001916   8.130790   4.010730   9.207570  69.176900  -0.644981  -2.504460   4.460610  -6.795040  13.934200 -21.400600  -7.651310   3.538460 -45.615400  25.867800  56.858600  14.772200   0.008241  -0.002100   2.386090  -0.001523   0.004008  28.184500   0.839222   1.565690  23.069400   0.006880   0.011078  16.151100   0.005082   0.000000  28.782000  -0.196344  -0.346963  41.553200   0.005347   0.006932  27.674400   0.001470  -0.002547  28.793700  -0.196438  -0.346911  43.123000   0.004280   0.000974  28.720000   0.002657  -0.005865  36.168100  -0.255521  -0.345029  54.253300   0.005042  -0.002163  36.132700   0.005960  -0.006969   3.377490   3.119270  -0.563314   0.187062   0.718620  11.894200  -3.469600  -2.405190   0.391522   0.000000   0.000000   0.000000  -1.946660   4.186040  -3.731910   1.170380   0.323831 -11.421200   0.081181  -2.484920  -2.938600   0.000000   0.000000  -0.000000
 -0.814806  89.465300   0.243092  -0.719772  -1.448810   0.547227   1.277230   2.903640  -1.022920   2.611230   5.783250  -2.114590  -2.109560  -0.055505   0.008229  -3.458390  -0.112217   7.069010  -8.317230   0.925021   9.964000 -75.694900   8.859090   1.685310   0.051069  -1.356450 -14.740600   9.188540 -12.818800  -2.701530  37.937700  26.599700 -52.146600 -29.988600   0.002112   0.001261  -9.994350   0.004189  -0.004538 -33.122500   1.297660  -1.988470 -27.118700   0.002487  -0.005215 -18.983000  -0.000954  -0.000244 -31.285600  -0.725985   1.194530 -46.939700  -0.004290   0.000306 -31.261900  -0.001393  -0.015208 -28.283600  -3.359540   6.216520 -35.750000  -0.012214  -0.006803 -23.809500   0.004836   0.004540 -33.380100  -3.899620   5.893560 -50.371300  -0.004435  -0.004722 -33.547300  -0.000508  -0.001898   8.133020   3.996560   9.210170  69.174200  -0.619415  -2.504210   4.477230  -6.822970  13.926300 -21.389900  -7.651220   3.548540 -45.601900  25.847200  56.856700  14.754600   0.008242  -0.002112   2.377310  -0.001522   0.004003  28.184700   0.847322   1.580860  23.069800   0.006874   0.011078  16.151100   0.005079   0.000000  28.782000  -0.195620  -0.346952  41.540700   0.005345   0.006930  27.666100   0.001460  -0.002554  28.793800  -0.195714  -0.346900  43.104000   0.004272   0.000963  28.707300   0.002635  -0.005868  36.162700  -0.252512  -0.342950  54.245100   0.005039  -0.002166  36.127200   0.005957  -0.006965   3.377660   3.124390  -0.569326   0.186924   0.719407  11.898600  -3.473450  -2.397680   0.382447  -0.000000   0.000000  -0.000000  -1.946330   4.191340  -3.732080   1.170250   0.325832 -11.421200   0.081030  -2.485690  -2.946160   0.000000   0.000000   0.000000
 -0.824513  89.465400   0.237206  -0.719327  -1.464960   0.565676   1.277440   2.922200  -1.019740   2.611890   5.820420  -2.108650  -2.116850  -0.012357   0.008125  -3.470690  -0.024907   7.139380  -8.328870   0.909465   9.970900 -75.693200   8.906120   1.665420   0.043126  -1.385890 -14.745400   9.175280 -12.831200  -2.711460  37.949700  26.607600 -52.151700 -29.986300   0.002095   0.001272  -9.993200   0.004188  -0.004542 -33.106200   1.282930  -1.966620 -27.104900   0.002478  -0.005212 -18.973400  -0.000966  -0.000243 -31.272000  -0.738922   1.216440 -46.919700  -0.004277   0.000317 -31.248600  -0.001411  -0.015224 -28.281000  -3.372160   6.240560 -35.718400  -0.012230  -0.006813 -23.788500   0.004815   0.004535 -33.359700  -3.912790   5.917400 -50.343000  -0.004436  -0.004739 -33.528400  -0.000532  -0.001857   8.135010   3.982330   9.217170  69.170500  -0.574405  -2.502510   4.501320  -6.869020  13.912000 -21.372300  -7.651050   3.569230 -45.583000  25.808900  56.866200  14.714000   0.008248  -0.002124   2.357010  -0.001522   0.003991  28.188100   0.867422   1.618090  23.073000   0.006861   0.011078  16.151100   0.005071  -0.000000  28.782100  -0.190555  -0.346880  41.528200   0.005336   0.006924  27.657800   0.001437  -0.002573  28.793900  -0.190651  -0.346825  43.085100   0.004256   0.000934  28.694700   0.002578  -0.005876  36.155600  -0.243549  -0.333307  54.234400   0.005032  -0.002175  36.120100   0.005948  -0.006958   3.377950   3.133740  -0.578831   0.186574   0.721075  11.904900  -3.479930  -2.386320   0.368155  -0.000000   0.000000  -0.000000  -1.945520   4.203820  -3.732300   1.170120   0.327832 -11.421300   0.080665  -2.486450  -2.958670   0.000000   0.000000  -0.000000
 -0.831434  89.465500   0.233527  -0.717635  -1.480800   0.579378   1.276840   2.934380  -1.019730   2.611000   5.844810  -2.108780  -2.122710   0.034134   0.007998  -3.482140   0.068659   7.220630  -8.335510   0.909794   9.984510 -75.693300   8.948820   1.642210   0.041225  -1.394080 -14.744800   9.183910 -12.858000  -2.701860  37.953200  26.633100 -52.178500 -29.997300   0.002063   0.001267  -9.998700   0.004188  -0.004543 -33.113700   1.282940  -1.965370 -27.111100   0.002462  -0.005214 -18.977800  -0.000987  -0.000240 -31.273700  -0.738927   1.216300 -46.922200  -0.004254   0.000336 -31.250300  -0.001446  -0.015249 -28.281000  -3.372860   6.241340 -35.727400  -0.012253  -0.006826 -23.794500   0.004783   0.004524 -33.360200  -3.913820   5.917960 -50.344000  -0.004434  -0.004771 -33.529100  -0.000567  -0.001794   8.132990   3.990490   9.228710  69.169500  -0.530108  -2.479430   4.513050  -6.907190  13.894500 -21.359300  -7.660260   3.591430 -45.536300  25.778600  56.901000  14.639400   0.008262  -0.002097   2.319670  -0.001522   0.003968  28.198800   0.898859   1.675870  23.082400   0.006841   0.011083  16.156700   0.005057   0.000000  28.782300  -0.175812  -0.323961  41.534100   0.005318   0.006914  27.661700   0.001406  -0.002602  28.794000  -0.175888  -0.323918  43.088200   0.004233   0.000891  28.696700   0.002487  -0.005888  36.153700  -0.224039  -0.307026  54.231600   0.005020  -0.002191  36.118200   0.005932  -0.006949   3.378170   3.141630  -0.585062   0.185495   0.723054  11.907500  -3.485280  -2.379560   0.358784   0.000000   0.000000  -0.000000  -1.943120   4.223260  -3.731270   1.169920   0.319315 -11.423700   0.074693  -2.481170  -2.970610  -0.000000   0.000000   0.000000
